<?xml version="1.0" encoding="UTF-8"?>
<svg width="38px" height="38px" viewBox="0 0 38 38" version="1.1" xmlns="http://www.w3.org/2000/svg" xmlns:xlink="http://www.w3.org/1999/xlink">
    <!-- Generator: Sketch 54.1 (76490) - https://sketchapp.com -->
    <title>car</title>
    <desc>Created with Sketch.</desc>
    <defs>
        <circle id="path-1" cx="16" cy="16" r="16"></circle>
        <filter x="-15.6%" y="-12.5%" width="131.2%" height="131.2%" filterUnits="objectBoundingBox" id="filter-2">
            <feOffset dx="0" dy="1" in="SourceAlpha" result="shadowOffsetOuter1"></feOffset>
            <feGaussianBlur stdDeviation="1.5" in="shadowOffsetOuter1" result="shadowBlurOuter1"></feGaussianBlur>
            <feColorMatrix values="0 0 0 0 0   0 0 0 0 0   0 0 0 0 0  0 0 0 0.14 0" type="matrix" in="shadowBlurOuter1"></feColorMatrix>
        </filter>
    </defs>
    <g id="Page-1" stroke="none" stroke-width="1" fill="none" fill-rule="evenodd">
        <g id="car" transform="translate(3.000000, 2.000000)">
            <g id="Oval">
                <use fill="black" fill-opacity="1" filter="url(#filter-2)" xlink:href="#path-1"></use>
                <use fill="#FFFFFF" fill-rule="evenodd" xlink:href="#path-1"></use>
            </g>
            <g transform="translate(5.333333, 4.000000)">
                <path d="M16.9383878,5.89098039 C16.7571242,5.38196078 16.2495861,5.01960784 15.6514161,5.01960784 L5.68191721,5.01960784 C5.08374728,5.01960784 4.58527233,5.38196078 4.39494553,5.89098039 L2.50980392,11.0588235 L2.50980392,17.9607843 C2.50980392,18.4352941 2.91764706,18.8235294 3.416122,18.8235294 L4.32244009,18.8235294 C4.82091503,18.8235294 5.22875817,18.4352941 5.22875817,17.9607843 L5.22875817,17.0980392 L16.1045752,17.0980392 L16.1045752,17.9607843 C16.1045752,18.4352941 16.5124183,18.8235294 17.0108932,18.8235294 L17.9172113,18.8235294 C18.4156863,18.8235294 18.8235294,18.4352941 18.8235294,17.9607843 L18.8235294,11.0588235 L16.9383878,5.89098039 Z M5.68191721,14.5098039 C4.9296732,14.5098039 4.32244009,13.9317647 4.32244009,13.2156863 C4.32244009,12.4996078 4.9296732,11.9215686 5.68191721,11.9215686 C6.43416122,11.9215686 7.04139434,12.4996078 7.04139434,13.2156863 C7.04139434,13.9317647 6.43416122,14.5098039 5.68191721,14.5098039 Z M15.6514161,14.5098039 C14.8991721,14.5098039 14.291939,13.9317647 14.291939,13.2156863 C14.291939,12.4996078 14.8991721,11.9215686 15.6514161,11.9215686 C16.4036601,11.9215686 17.0108932,12.4996078 17.0108932,13.2156863 C17.0108932,13.9317647 16.4036601,14.5098039 15.6514161,14.5098039 Z M4.32244009,10.1960784 L5.68191721,6.31372549 L15.6514161,6.31372549 L17.0108932,10.1960784 L4.32244009,10.1960784 Z" id="Shape" fill="#2ECC71" fill-rule="nonzero"></path>
                <polygon id="Path" points="0 0 21.3333333 0 21.3333333 21.3333333 0 21.3333333"></polygon>
            </g>
        </g>
    </g>
</svg>